{"accessors":[{"bufferView":0,"componentType":5126,"count":117,"max":[0.5,0.5,0.5],"min":[-0.5,-0.5,-0.5],"type":"VEC3"},{"bufferView":1,"componentType":5126,"count":117,"type":"VEC3"},{"bufferView":2,"componentType":5126,"count":117,"type":"VEC2"},{"bufferView":3,"componentType":5123,"count":504,"type":"SCALAR"}],"asset":{"generator":"tulpar kup_kure_modelleri.py","version":"2.0"},"bufferViews":[{"buffer":0,"byteLength":1404,"byteOffset":0,"target":34962},{"buffer":0,"byteLength":1404,"byteOffset":1404,"target":34962},{"buffer":0,"byteLength":936,"byteOffset":2808,"target":34962},{"buffer":0,"byteLength":1008,"byteOffset":3744,"target":34963}],"buffers":[{"byteLength":4752,"uri":"data:application/octet-stream;base64,"}],"materials":[{"emissiveFactor":[4.0,1.5,0.3],"name":"isik_turuncu","pbrMetallicRoughness":{"baseColorFactor":[1,1,1,1],"metallicFactor":0,"roughnessFactor":0.8}}],"meshes":[{"name":"isik_turuncu","primitives":[{"attributes":{"NORMAL":1,"POSITION":0,"TEXCOORD_0":2},"indices":3,"material":0}]}],"nodes":[{"mesh":0,"name":"isik_turuncu"}],"scene":0,"scenes":[{"nodes":[0]}]}
