{"accessors":[{"bufferView":0,"componentType":5126,"count":209,"max":[0.5,0.5,0.492404],"min":[-0.5,-0.5,-0.492404],"type":"VEC3"},{"bufferView":1,"componentType":5126,"count":209,"type":"VEC3"},{"bufferView":2,"componentType":5126,"count":209,"type":"VEC2"},{"bufferView":3,"componentType":5123,"count":972,"type":"SCALAR"}],"asset":{"generator":"tulpar kup_kure_modelleri.py","version":"2.0"},"bufferViews":[{"buffer":0,"byteLength":2508,"byteOffset":0,"target":34962},{"buffer":0,"byteLength":2508,"byteOffset":2508,"target":34962},{"buffer":0,"byteLength":1672,"byteOffset":5016,"target":34962},{"buffer":0,"byteLength":1944,"byteOffset":6688,"target":34963}],"buffers":[{"byteLength":8632,"uri":"data:application/octet-stream;base64,"}],"materials":[{"name":"kure","pbrMetallicRoughness":{"baseColorFactor":[1,1,1,1],"metallicFactor":0,"roughnessFactor":0.8}}],"meshes":[{"name":"kure","primitives":[{"attributes":{"NORMAL":1,"POSITION":0,"TEXCOORD_0":2},"indices":3,"material":0}]}],"nodes":[{"mesh":0,"name":"kure"}],"scene":0,"scenes":[{"nodes":[0]}]}
