{"accessors":[{"bufferView":0,"componentType":5126,"count":24,"max":[0.03,0.5,0.03],"min":[-0.03,-0.5,-0.03],"type":"VEC3"},{"bufferView":1,"componentType":5126,"count":24,"type":"VEC3"},{"bufferView":2,"componentType":5126,"count":24,"type":"VEC2"},{"bufferView":3,"componentType":5123,"count":36,"type":"SCALAR"}],"asset":{"generator":"tulpar kup_kure_modelleri.py","version":"2.0"},"bufferViews":[{"buffer":0,"byteLength":288,"byteOffset":0,"target":34962},{"buffer":0,"byteLength":288,"byteOffset":288,"target":34962},{"buffer":0,"byteLength":192,"byteOffset":576,"target":34962},{"buffer":0,"byteLength":72,"byteOffset":768,"target":34963}],"buffers":[{"byteLength":840,"uri":"data:application/octet-stream;base64,"}],"materials":[{"emissiveFactor":[0.8,3.0,6.0],"name":"lazer_mavi","pbrMetallicRoughness":{"baseColorFactor":[1,1,1,1],"metallicFactor":0,"roughnessFactor":0.8}}],"meshes":[{"name":"lazer_mavi","primitives":[{"attributes":{"NORMAL":1,"POSITION":0,"TEXCOORD_0":2},"indices":3,"material":0}]}],"nodes":[{"mesh":0,"name":"lazer_mavi"}],"scene":0,"scenes":[{"nodes":[0]}]}
